<?xml version="1.0" encoding="UTF-8"?>
<svg version="1.1" viewBox="0 0 1134 1135" width="1134" height="1135" xmlns="http://www.w3.org/2000/svg">
<path transform="translate(0)" d="m0 0h1134v1135h-1134z" fill="#FEFEFE"/>
<path transform="translate(330,319)" d="m0 0h474l11 4 10 7 7 9 4 8 2 10v421l-3 12-6 10-8 8-11 6-8 2h-470l-13-4-12-9-7-11-3-8-1-5v-423l3-12 7-11 9-8 11-5z"/>
<path transform="translate(389,408)" d="m0 0 76 1 6 16 6 11 8 11 12 13 16 11 14 7 3 1v-70l3-1h70l1 1v69l5-1 14-7 12-9 10-9 10-13 7-12 7-18h78l-1 13-5 23-7 20-8 16-8 14-10 13-9 10-7 8-14 12-13 9-15 9-21 9-20 6-16 3-8 1h-36l-24-4-17-5-20-8-16-9-16-11-15-13-7-7-9-11-9-12-9-15-8-17-7-21-4-18-1-15z" fill="#FDFDFD"/>
<path transform="translate(523,599)" d="m0 0h90l8 16 20 41 12 25 14 29 7 16h-80l-11-20-13-26-4 5-16 26-9 14-1 1h-80l9-19z" fill="#FEFEFE"/>
</svg>
